<?xml version="1.0" encoding="iso-8859-1"?>
<!-- Generator: Adobe Illustrator 19.2.1, SVG Export Plug-In . SVG Version: 6.00 Build 0)  -->
<svg version="1.1" xmlns="http://www.w3.org/2000/svg" xmlns:xlink="http://www.w3.org/1999/xlink" x="0px" y="0px"
	 viewBox="0 0 160 220" style="enable-background:new 0 0 160 220;" xml:space="preserve">
<g id="Calque_1">
	<g>
		<path style="fill:#3C3CE5;" d="M92.55,168.273c-0.57-1.187-2.842-0.301-4.038,0.274c-0.044,0.023-4.557,1.296-8.525,1.296
			c-4.225,0-7.635-0.876-7.677-0.897c-1.175-0.596-4.063-1.851-4.661-0.673c-0.598,1.178,0.502,3.101,1.678,3.701
			c0.213,0.107,5.459,1.059,10.86,1.059c5.073,0,10.185-0.926,10.407-1.034C91.786,171.43,93.12,169.465,92.55,168.273z"/>
		<path style="fill:#3C3CE5;" d="M53.666,121.986c5.29,0,10.424-2.538,10.642-2.645c1.18-0.591,2.248-1.855,1.659-3.038
			c-0.587-1.182-1.911-0.769-3.103-0.187c-0.042,0.023-4.558,3.078-8.699,3.078c-7.566,0-10.829-4.314-10.967-4.536
			c-0.631-1.136-2.028-2.412-3.178-1.795c-1.168,0.619-1.052,1.9-0.43,3.066C39.72,116.177,42.929,121.986,53.666,121.986z"/>
		<path style="fill:#3C3CE5;" d="M41.702,93.272c0.629,0,1.257-0.248,1.727-0.736c0.04-0.042,3.954-4.05,10.237-4.05
			c6.045,0,10.237,4.052,10.272,4.085c0.935,0.935,2.449,0.935,3.384,0c0.935-0.935-0.209-2.253-1.143-3.187
			c-0.224-0.224-4.437-6.58-12.513-6.58c-8.303,0-12.547,6.506-12.762,6.73c-0.916,0.956-1.813,2.159-0.859,3.073
			C40.51,93.052,41.106,93.272,41.702,93.272z"/>
		<path style="fill:#3C3CE5;" d="M94.345,95.665c0.25,0,0.505-0.04,0.757-0.124c0.068-0.021,7.16-2.568,11.506-2.568
			c4.335,0,10.84,2.547,10.908,2.57c1.264,0.411,2.781,0.626,3.2-0.626c0.418-1.255-1.041-2.476-2.293-2.891
			c-0.308-0.103-6.999-3.539-12.114-3.539c-5.115,0-11.058,2.739-11.366,2.842c-1.253,0.416-3.36,2.035-2.941,3.29
			C92.336,95.62,93.342,95.665,94.345,95.665z"/>
		<path style="fill:#3C3CE5;" d="M157.361,112.76c-0.615-1.477-1.764-2.627-3.239-3.234c-1.472-0.605-3.099-0.603-4.575,0.014
			c-0.482,0.201-0.914,0.477-1.319,0.784l3.545-40.774c0-0.004-0.001-0.007-0.001-0.011c0-0.005,0.003-0.008,0.004-0.013
			c0.481-6.263,0.346-22.491-11.284-37.928c-11.52-15.29-30.184-24.323-55.48-26.852c-0.58-0.054-1.152,0.096-1.624,0.43
			c-10.927,7.765-20.395,11.436-42.214,16.367c-0.006,0.001-0.011,0.006-0.017,0.007C19.56,25.759,6.685,49.732,8.209,69.528
			c0,0.005,0.003,0.008,0.004,0.013c0,0.004-0.001,0.007-0.001,0.011l3.545,40.774c-0.405-0.308-0.836-0.584-1.319-0.784
			c-1.477-0.619-3.103-0.622-4.575-0.014c-1.475,0.608-2.624,1.757-3.239,3.234c-0.617,1.479-0.115,4.463,0.493,5.935l6.793,16.339
			c0.907,2.201,2.978,5.795,3.078,10.88l0.044-0.218c0.93,40.296,27.588,67.218,66.956,67.218c39.369,0,66.026-26.922,66.956-67.218
			l0.044,0.218c0-5.434,2.18-8.679,3.087-10.88l6.185-15.965C156.868,117.598,157.978,114.24,157.361,112.76z M79.988,157.879
			c5.484,0,11.964-2.393,11.964-2.393c2.247,0,4.237,1.067,5.555,2.696c-1.931,0.708-9.098,3.136-17.37,3.136
			c-8.289,0-15.69-2.439-17.665-3.141c1.319-1.627,3.307-2.692,5.552-2.692C68.023,155.486,74.504,157.879,79.988,157.879z
			 M63.238,172.236c0,0-2.534-7.319-2.393-9.571c0.053-0.847,0.061-1.02,0.167-1.507c2.63,1.052,10.311,3.9,18.976,3.9
			c8.918,0,16.646-2.871,19-3.798c0.091,0.455,0.043,0.458,0.143,1.405c0.349,2.642-2.393,9.571-2.393,9.571
			c-3.49,9.272-8.016,4.786-11.964,4.786h-9.571C71.254,177.022,66.229,180.81,63.238,172.236z M24.641,74.215
			c0.117-0.206,0.201-0.428,0.252-0.659c2.271-10.191,10.898-20.214,23.138-26.976c2.315,0.694,4.784,1.606,7.411,2.609
			c7.132,2.718,15.219,5.798,24.545,5.798c9.328,0,17.418-3.082,24.552-5.8c2.942-1.122,5.718-2.18,8.26-2.884l0.001-0.001
			c0.165-0.044,0.457-0.088,0.806-0.131c11.423,6.122,18.853,15.585,21.483,27.385c0.035,0.164,0.164,0.472,0.236,0.626
			c1.809,3.93,0.918,42.849-0.292,69.229c0,0.01,0.005,0.019,0.005,0.029c-0.001,0.028-0.016,0.052-0.016,0.08
			c0,8.338-4.068,16.75-13.161,16.75c-6.302,0-8.674-1.262-11.03-5.875c-2.414-4.725-5.938-6.22-9.048-7.543
			c-0.547-0.231-5.244-1.643-8.172-1.193c-0.152,0.023-0.263,0.047-0.355,0.072c1.023-0.275,1.867-0.869,2.426-1.765
			c1.94-3.11-1.015-6.878-2.137-9.17c-0.58-1.187-2.808-3.81-3.988-3.24c-1.187,0.58-0.336,2.255,0.243,3.444
			c1.091,2.236,1.9,4.975,1.853,6.129c-4.699,0.107-6.449,2.743-7.735,4.678c-1.105,1.664-1.659,2.498-3.933,2.498
			c-2.283,0-2.856-0.848-4.001-2.538c-1.29-1.904-3.04-4.491-7.623-4.638c-0.044-1.168,0.748-3.907,1.818-6.148
			c0.568-1.192,1.323-2.856,0.134-3.426c-1.194-0.568-3.216,1.947-3.789,3.141c-1.103,2.304-4.124,6.216-2.183,9.3
			c0.562,0.89,1.403,1.479,2.421,1.747l-0.028,0.012c-0.015-0.004-0.022-0.007-0.038-0.011c-3.068-0.76-7.786,0.805-8.232,1.001
			c-3.152,1.379-6.132,2.683-9.205,7.443l-0.713,1.11c-2.877,4.503-3.178,4.973-8.046,4.973c-8.576,0-15.554-7.515-15.554-16.75
			c0-0.019-0.011-0.035-0.011-0.054c0-0.019,0.009-0.036,0.009-0.056C23.739,117.032,22.849,78.113,24.641,74.215z M7.036,115.515
			c-0.164-0.395-0.068-0.743,0.005-0.916c0.072-0.171,0.252-0.486,0.645-0.647c0.61-0.255,1.316,0.054,1.561,0.65l3.741,15.208
			v0.134L7.036,115.515z M152.949,115.515l-5.779,14.009l3.568-14.923c0.243-0.596,0.951-0.907,1.561-0.65
			c0.393,0.161,0.573,0.477,0.645,0.647C153.017,114.772,153.112,115.121,152.949,115.515z"/>
		<path style="fill:#3C3CE5;" d="M48.881,114.807c0,2.638,2.147,2.393,4.786,2.393s4.786,0.245,4.786-2.393
			c0-2.638-2.147-4.786-4.786-4.786S48.881,112.169,48.881,114.807z"/>
		<path style="fill:#3C3CE5;" d="M120.268,113.013c-1.117-0.659-2.105,0.988-2.792,2.094c-0.093,0.147-3.5,4.088-11.067,4.088
			c-4.141,0-8.832-2.669-8.874-2.692c-1.192-0.582-2.352-1.55-2.938-0.368c-0.589,1.182-0.11,2.615,1.07,3.206
			c0.217,0.107,5.351,2.645,10.642,2.645c10.551,0,13.911-5.76,14.049-6.006C120.996,114.847,121.387,113.676,120.268,113.013z"/>
		<path style="fill:#3C3CE5;" d="M106.309,117.2c2.638,0,4.786,0.245,4.786-2.393c0-2.638-2.147-4.786-4.786-4.786
			c-2.638,0-4.786,2.147-4.786,4.786C101.523,117.446,103.671,117.2,106.309,117.2z"/>
		<path style="fill:#3C3CE5;" d="M145.782,110.337l-16.75-9.571c-0.053-0.03-0.113-0.043-0.168-0.069
			c-0.066-0.031-0.13-0.056-0.199-0.081c-0.264-0.097-0.538-0.165-0.821-0.165H32.131c-0.283,0-0.954,0.216-1.019,0.247
			c-0.055,0.026-0.115,0.039-0.168,0.069l-16.75,9.571c-1.147,0.657-1.547,2.117-0.89,3.264c0.654,1.147,2.115,1.549,3.264,0.89
			l13.17-6.564v9.272c0,6.597,5.368,11.964,11.964,11.964h21.536c6.597,0,11.964-5.368,11.964-11.964c0,0-0.047-2.501,0.399-4.586
			c0.446-2.086,1.749-4.985,4.387-4.985c2.638,0,3.73,3.155,4.188,4.885c0.457,1.73,0.598,4.686,0.598,4.686
			c0,6.597,5.368,11.964,11.964,11.964h21.536c6.597,0,11.964-5.368,11.964-11.964v-8.674l13.17,5.966
			c0.374,0.215,0.783,0.315,1.185,0.315c0.832,0,1.638-0.432,2.08-1.206C147.329,112.454,146.929,110.994,145.782,110.337z
			 M63.238,124.379H41.702c-3.965,0-7.179-3.214-7.179-7.179v-9.073c0-1.597,1.294-2.891,2.891-2.891h29.13
			c4.021,0,3.872,4.306,3.872,7.179v4.786C70.416,121.165,67.202,124.379,63.238,124.379z M118.274,124.379H96.738
			c-3.965,0-7.179-3.214-7.179-7.179v-4.786c0-2.873,0.374-7.104,3.872-7.179h29.082c1.623,0,2.939,1.316,2.939,2.939v9.025
			C125.452,121.165,122.238,124.379,118.274,124.379z"/>
	</g>
</g>
<g id="Calque_2">
</g>
</svg>
